# xmcd CD database file
#
# Track frame offsets:
#	150
#	22344
#	42095
#	59311
#	80325
#	105194
#	132893
#	150016
#	170812
#	188880
#
# Disc length: 2786 seconds
#
# Revision: 0
# Processed by: cddbd v1.5.2PL0 Copyright (c) Steve Scherf et al.
# Submitted via: CDex 1.70beta2
#
DISCID=740ae00a
DTITLE=Various Artist - asian chill 3
DYEAR=2006
DGENRE=New Age
TTITLE0=eastern awakening
TTITLE1=orbital senses
TTITLE2=resolution dub
TTITLE3=sands of time
TTITLE4=native american dream
TTITLE5=drums of change
TTITLE6=hedonist
TTITLE7=lifeblood
TTITLE8=full moon
TTITLE9=time of sands
EXTD=YEAR: 2006
EXTT0=
EXTT1=
EXTT2=
EXTT3=
EXTT4=
EXTT5=
EXTT6=
EXTT7=
EXTT8=
EXTT9=
PLAYORDER=
